<mxfile host="app.diagrams.net" modified="2023-04-03T08:18:04.955Z" agent="Mozilla/5.0 (Macintosh; Intel Mac OS X 10_15_7) AppleWebKit/537.36 (KHTML, like Gecko) Chrome/111.0.0.0 Safari/537.36" etag="LEYhXKsVAg7T8V-h9CPa" version="21.1.1" type="github">
  <diagram name="Page-1" id="EoTJbLXpDszvz9lnf5T_">
    <mxGraphModel dx="1900" dy="602" grid="0" gridSize="10" guides="1" tooltips="1" connect="1" arrows="1" fold="1" page="1" pageScale="1" pageWidth="850" pageHeight="1100" math="0" shadow="0">
      <root>
        <mxCell id="0" />
        <mxCell id="1" parent="0" />
        <mxCell id="SA4KDHgM7VU6tI5pNKnn-1" value="Person" style="rounded=0;whiteSpace=wrap;html=1;strokeWidth=2;" vertex="1" parent="1">
          <mxGeometry x="22" y="33" width="120" height="50" as="geometry" />
        </mxCell>
        <mxCell id="SA4KDHgM7VU6tI5pNKnn-2" value="Project" style="rounded=0;whiteSpace=wrap;html=1;strokeWidth=2;" vertex="1" parent="1">
          <mxGeometry x="262" y="33" width="120" height="50" as="geometry" />
        </mxCell>
        <mxCell id="SA4KDHgM7VU6tI5pNKnn-3" value="Computer Language" style="rounded=0;whiteSpace=wrap;html=1;strokeWidth=2;" vertex="1" parent="1">
          <mxGeometry x="142" y="143" width="120" height="50" as="geometry" />
        </mxCell>
        <mxCell id="SA4KDHgM7VU6tI5pNKnn-4" value="" style="html=1;whiteSpace=wrap;aspect=fixed;shape=isoRectangle;" vertex="1" parent="1">
          <mxGeometry x="187" y="49" width="30" height="18" as="geometry" />
        </mxCell>
        <mxCell id="SA4KDHgM7VU6tI5pNKnn-5" value="" style="endArrow=none;html=1;rounded=0;exitX=0.5;exitY=0;exitDx=0;exitDy=0;" edge="1" parent="1" source="SA4KDHgM7VU6tI5pNKnn-3">
          <mxGeometry width="50" height="50" relative="1" as="geometry">
            <mxPoint x="152" y="117" as="sourcePoint" />
            <mxPoint x="202" y="67" as="targetPoint" />
          </mxGeometry>
        </mxCell>
        <mxCell id="SA4KDHgM7VU6tI5pNKnn-6" value="" style="endArrow=none;html=1;rounded=0;exitX=1;exitY=0.5;exitDx=0;exitDy=0;entryX=0.033;entryY=0.5;entryDx=0;entryDy=0;entryPerimeter=0;" edge="1" parent="1" source="SA4KDHgM7VU6tI5pNKnn-1" target="SA4KDHgM7VU6tI5pNKnn-4">
          <mxGeometry width="50" height="50" relative="1" as="geometry">
            <mxPoint x="552" y="333" as="sourcePoint" />
            <mxPoint x="192" y="58" as="targetPoint" />
          </mxGeometry>
        </mxCell>
        <mxCell id="SA4KDHgM7VU6tI5pNKnn-8" value="" style="endArrow=none;html=1;rounded=0;entryX=0;entryY=0.5;entryDx=0;entryDy=0;startSize=6;exitX=0.976;exitY=0.508;exitDx=0;exitDy=0;exitPerimeter=0;" edge="1" parent="1" source="SA4KDHgM7VU6tI5pNKnn-4" target="SA4KDHgM7VU6tI5pNKnn-2">
          <mxGeometry width="50" height="50" relative="1" as="geometry">
            <mxPoint x="222" y="58" as="sourcePoint" />
            <mxPoint x="602" y="283" as="targetPoint" />
          </mxGeometry>
        </mxCell>
        <mxCell id="SA4KDHgM7VU6tI5pNKnn-9" value="Input/Output Device" style="rounded=0;whiteSpace=wrap;html=1;strokeWidth=2;" vertex="1" parent="1">
          <mxGeometry x="555" y="33" width="120" height="50" as="geometry" />
        </mxCell>
        <mxCell id="SA4KDHgM7VU6tI5pNKnn-10" value="Modem" style="rounded=0;whiteSpace=wrap;html=1;strokeWidth=2;" vertex="1" parent="1">
          <mxGeometry x="466" y="132" width="120" height="50" as="geometry" />
        </mxCell>
        <mxCell id="SA4KDHgM7VU6tI5pNKnn-11" value="Keyboard" style="rounded=0;whiteSpace=wrap;html=1;strokeWidth=2;" vertex="1" parent="1">
          <mxGeometry x="653" y="132" width="120" height="50" as="geometry" />
        </mxCell>
        <mxCell id="SA4KDHgM7VU6tI5pNKnn-14" value="" style="strokeWidth=1;html=1;shape=mxgraph.flowchart.annotation_1;align=left;pointerEvents=1;rotation=90;" vertex="1" parent="1">
          <mxGeometry x="607.75" y="17.75" width="25.5" height="201" as="geometry" />
        </mxCell>
        <mxCell id="SA4KDHgM7VU6tI5pNKnn-15" value="" style="html=1;whiteSpace=wrap;aspect=fixed;shape=isoRectangle;rotation=90;" vertex="1" parent="1">
          <mxGeometry x="605.25" y="88" width="19.5" height="11.7" as="geometry" />
        </mxCell>
        <mxCell id="SA4KDHgM7VU6tI5pNKnn-18" value="Object Class" style="rounded=0;whiteSpace=wrap;html=1;strokeWidth=2;" vertex="1" parent="1">
          <mxGeometry x="22" y="276" width="120" height="50" as="geometry" />
        </mxCell>
        <mxCell id="SA4KDHgM7VU6tI5pNKnn-19" value="Attribute" style="rounded=0;whiteSpace=wrap;html=1;strokeWidth=2;" vertex="1" parent="1">
          <mxGeometry x="262" y="276" width="120" height="50" as="geometry" />
        </mxCell>
        <mxCell id="SA4KDHgM7VU6tI5pNKnn-20" value="" style="endArrow=diamondThin;endFill=1;endSize=24;html=1;rounded=0;exitX=0;exitY=0.5;exitDx=0;exitDy=0;" edge="1" parent="1" source="SA4KDHgM7VU6tI5pNKnn-19" target="SA4KDHgM7VU6tI5pNKnn-18">
          <mxGeometry width="160" relative="1" as="geometry">
            <mxPoint x="260" y="303" as="sourcePoint" />
            <mxPoint x="547" y="314" as="targetPoint" />
          </mxGeometry>
        </mxCell>
        <mxCell id="SA4KDHgM7VU6tI5pNKnn-21" value="0..*" style="text;html=1;strokeColor=none;fillColor=none;align=center;verticalAlign=middle;whiteSpace=wrap;rounded=0;" vertex="1" parent="1">
          <mxGeometry x="217" y="269" width="60" height="30" as="geometry" />
        </mxCell>
        <mxCell id="SA4KDHgM7VU6tI5pNKnn-22" value="1" style="text;html=1;strokeColor=none;fillColor=none;align=center;verticalAlign=middle;whiteSpace=wrap;rounded=0;" vertex="1" parent="1">
          <mxGeometry x="127" y="269" width="60" height="30" as="geometry" />
        </mxCell>
        <mxCell id="SA4KDHgM7VU6tI5pNKnn-23" value="Person" style="rounded=0;whiteSpace=wrap;html=1;strokeWidth=2;" vertex="1" parent="1">
          <mxGeometry x="446" y="234" width="120" height="50" as="geometry" />
        </mxCell>
        <mxCell id="SA4KDHgM7VU6tI5pNKnn-24" value="Year" style="rounded=0;whiteSpace=wrap;html=1;strokeWidth=2;" vertex="1" parent="1">
          <mxGeometry x="686" y="234" width="120" height="50" as="geometry" />
        </mxCell>
        <mxCell id="SA4KDHgM7VU6tI5pNKnn-25" value="Team" style="rounded=0;whiteSpace=wrap;html=1;strokeWidth=2;" vertex="1" parent="1">
          <mxGeometry x="566" y="344" width="120" height="50" as="geometry" />
        </mxCell>
        <mxCell id="SA4KDHgM7VU6tI5pNKnn-26" value="" style="html=1;whiteSpace=wrap;aspect=fixed;shape=isoRectangle;" vertex="1" parent="1">
          <mxGeometry x="611" y="250" width="30" height="18" as="geometry" />
        </mxCell>
        <mxCell id="SA4KDHgM7VU6tI5pNKnn-27" value="" style="endArrow=none;html=1;rounded=0;exitX=0.5;exitY=0;exitDx=0;exitDy=0;" edge="1" parent="1" source="SA4KDHgM7VU6tI5pNKnn-25">
          <mxGeometry width="50" height="50" relative="1" as="geometry">
            <mxPoint x="576" y="318" as="sourcePoint" />
            <mxPoint x="626" y="268" as="targetPoint" />
          </mxGeometry>
        </mxCell>
        <mxCell id="SA4KDHgM7VU6tI5pNKnn-28" value="" style="endArrow=none;html=1;rounded=0;exitX=1;exitY=0.5;exitDx=0;exitDy=0;entryX=0.033;entryY=0.5;entryDx=0;entryDy=0;entryPerimeter=0;" edge="1" parent="1" source="SA4KDHgM7VU6tI5pNKnn-23" target="SA4KDHgM7VU6tI5pNKnn-26">
          <mxGeometry width="50" height="50" relative="1" as="geometry">
            <mxPoint x="976" y="534" as="sourcePoint" />
            <mxPoint x="616" y="259" as="targetPoint" />
          </mxGeometry>
        </mxCell>
        <mxCell id="SA4KDHgM7VU6tI5pNKnn-29" value="" style="endArrow=none;html=1;rounded=0;entryX=0;entryY=0.5;entryDx=0;entryDy=0;startSize=6;exitX=0.976;exitY=0.508;exitDx=0;exitDy=0;exitPerimeter=0;" edge="1" parent="1" source="SA4KDHgM7VU6tI5pNKnn-26" target="SA4KDHgM7VU6tI5pNKnn-24">
          <mxGeometry width="50" height="50" relative="1" as="geometry">
            <mxPoint x="646" y="259" as="sourcePoint" />
            <mxPoint x="1026" y="484" as="targetPoint" />
          </mxGeometry>
        </mxCell>
        <mxCell id="SA4KDHgM7VU6tI5pNKnn-30" value="Play" style="text;html=1;strokeColor=none;fillColor=none;align=center;verticalAlign=middle;whiteSpace=wrap;rounded=0;" vertex="1" parent="1">
          <mxGeometry x="596" y="223" width="60" height="30" as="geometry" />
        </mxCell>
        <mxCell id="SA4KDHgM7VU6tI5pNKnn-31" value="Route" style="rounded=0;whiteSpace=wrap;html=1;strokeWidth=2;" vertex="1" parent="1">
          <mxGeometry x="22" y="453" width="120" height="50" as="geometry" />
        </mxCell>
        <mxCell id="SA4KDHgM7VU6tI5pNKnn-32" value="" style="endArrow=none;html=1;rounded=0;entryX=0;entryY=0.5;entryDx=0;entryDy=0;startSize=6;exitX=1;exitY=0.5;exitDx=0;exitDy=0;" edge="1" parent="1" source="SA4KDHgM7VU6tI5pNKnn-31" target="SA4KDHgM7VU6tI5pNKnn-33">
          <mxGeometry width="50" height="50" relative="1" as="geometry">
            <mxPoint x="173" y="484" as="sourcePoint" />
            <mxPoint x="188" y="481" as="targetPoint" />
          </mxGeometry>
        </mxCell>
        <mxCell id="SA4KDHgM7VU6tI5pNKnn-33" value="City" style="rounded=0;whiteSpace=wrap;html=1;strokeWidth=2;" vertex="1" parent="1">
          <mxGeometry x="262" y="453" width="120" height="50" as="geometry" />
        </mxCell>
        <mxCell id="SA4KDHgM7VU6tI5pNKnn-34" value="Connects" style="text;html=1;strokeColor=none;fillColor=none;align=center;verticalAlign=middle;whiteSpace=wrap;rounded=0;" vertex="1" parent="1">
          <mxGeometry x="174" y="453" width="60" height="30" as="geometry" />
        </mxCell>
        <mxCell id="SA4KDHgM7VU6tI5pNKnn-35" value="2" style="text;html=1;strokeColor=none;fillColor=none;align=center;verticalAlign=middle;whiteSpace=wrap;rounded=0;" vertex="1" parent="1">
          <mxGeometry x="220" y="451" width="60" height="30" as="geometry" />
        </mxCell>
        <mxCell id="SA4KDHgM7VU6tI5pNKnn-36" value="1..*" style="text;html=1;strokeColor=none;fillColor=none;align=center;verticalAlign=middle;whiteSpace=wrap;rounded=0;" vertex="1" parent="1">
          <mxGeometry x="127" y="451" width="60" height="30" as="geometry" />
        </mxCell>
        <mxCell id="SA4KDHgM7VU6tI5pNKnn-38" value="Student" style="rounded=0;whiteSpace=wrap;html=1;strokeWidth=2;" vertex="1" parent="1">
          <mxGeometry x="435.5" y="452" width="120" height="50" as="geometry" />
        </mxCell>
        <mxCell id="SA4KDHgM7VU6tI5pNKnn-39" value="Professor" style="rounded=0;whiteSpace=wrap;html=1;strokeWidth=2;" vertex="1" parent="1">
          <mxGeometry x="685.5" y="452" width="120" height="50" as="geometry" />
        </mxCell>
        <mxCell id="SA4KDHgM7VU6tI5pNKnn-40" value="Course" style="rounded=0;whiteSpace=wrap;html=1;strokeWidth=2;" vertex="1" parent="1">
          <mxGeometry x="560.5" y="562" width="120" height="50" as="geometry" />
        </mxCell>
        <mxCell id="SA4KDHgM7VU6tI5pNKnn-41" value="" style="html=1;whiteSpace=wrap;aspect=fixed;shape=isoRectangle;" vertex="1" parent="1">
          <mxGeometry x="605.5" y="468" width="30" height="18" as="geometry" />
        </mxCell>
        <mxCell id="SA4KDHgM7VU6tI5pNKnn-42" value="" style="endArrow=none;html=1;rounded=0;exitX=0.5;exitY=0;exitDx=0;exitDy=0;" edge="1" parent="1" source="SA4KDHgM7VU6tI5pNKnn-40">
          <mxGeometry width="50" height="50" relative="1" as="geometry">
            <mxPoint x="570.5" y="536" as="sourcePoint" />
            <mxPoint x="620.5" y="486" as="targetPoint" />
          </mxGeometry>
        </mxCell>
        <mxCell id="SA4KDHgM7VU6tI5pNKnn-43" value="" style="endArrow=none;html=1;rounded=0;exitX=1;exitY=0.5;exitDx=0;exitDy=0;entryX=0.033;entryY=0.5;entryDx=0;entryDy=0;entryPerimeter=0;" edge="1" parent="1" source="SA4KDHgM7VU6tI5pNKnn-38" target="SA4KDHgM7VU6tI5pNKnn-41">
          <mxGeometry width="50" height="50" relative="1" as="geometry">
            <mxPoint x="970.5" y="752" as="sourcePoint" />
            <mxPoint x="610.5" y="477" as="targetPoint" />
          </mxGeometry>
        </mxCell>
        <mxCell id="SA4KDHgM7VU6tI5pNKnn-44" value="" style="endArrow=none;html=1;rounded=0;entryX=0;entryY=0.5;entryDx=0;entryDy=0;startSize=6;exitX=0.976;exitY=0.508;exitDx=0;exitDy=0;exitPerimeter=0;" edge="1" parent="1" source="SA4KDHgM7VU6tI5pNKnn-41" target="SA4KDHgM7VU6tI5pNKnn-39">
          <mxGeometry width="50" height="50" relative="1" as="geometry">
            <mxPoint x="640.5" y="477" as="sourcePoint" />
            <mxPoint x="1020.5" y="702" as="targetPoint" />
          </mxGeometry>
        </mxCell>
        <mxCell id="SA4KDHgM7VU6tI5pNKnn-45" value="Takes" style="text;html=1;strokeColor=none;fillColor=none;align=center;verticalAlign=middle;whiteSpace=wrap;rounded=0;" vertex="1" parent="1">
          <mxGeometry x="546" y="449" width="60" height="30" as="geometry" />
        </mxCell>
        <mxCell id="SA4KDHgM7VU6tI5pNKnn-46" value="Teaches" style="text;html=1;strokeColor=none;fillColor=none;align=center;verticalAlign=middle;whiteSpace=wrap;rounded=0;" vertex="1" parent="1">
          <mxGeometry x="630" y="449" width="60" height="30" as="geometry" />
        </mxCell>
        <mxCell id="SA4KDHgM7VU6tI5pNKnn-64" value="&lt;p style=&quot;margin:0px;margin-top:4px;text-align:center;&quot;&gt;&lt;b&gt;FileSystem&lt;/b&gt;&lt;/p&gt;&lt;hr size=&quot;1&quot;&gt;&lt;p style=&quot;margin:0px;margin-left:4px;&quot;&gt;+ rootDirectory: Directory&lt;/p&gt;&lt;hr size=&quot;1&quot;&gt;&lt;p style=&quot;margin:0px;margin-left:4px;&quot;&gt;+ getRoot(): Directory&lt;/p&gt;" style="verticalAlign=top;align=left;overflow=fill;fontSize=12;fontFamily=Helvetica;html=1;whiteSpace=wrap;" vertex="1" parent="1">
          <mxGeometry x="183" y="732" width="160" height="80" as="geometry" />
        </mxCell>
        <mxCell id="SA4KDHgM7VU6tI5pNKnn-65" value="" style="endArrow=diamondThin;endFill=0;endSize=24;html=1;rounded=0;entryX=0.5;entryY=1;entryDx=0;entryDy=0;" edge="1" parent="1" target="SA4KDHgM7VU6tI5pNKnn-64">
          <mxGeometry width="160" relative="1" as="geometry">
            <mxPoint x="263" y="860" as="sourcePoint" />
            <mxPoint x="565" y="823" as="targetPoint" />
          </mxGeometry>
        </mxCell>
        <mxCell id="SA4KDHgM7VU6tI5pNKnn-66" value="&lt;p style=&quot;margin:0px;margin-top:4px;text-align:center;&quot;&gt;&lt;b&gt;&lt;i&gt;FileNode&lt;/i&gt;&lt;/b&gt;&lt;/p&gt;&lt;hr size=&quot;1&quot;&gt;&lt;p style=&quot;margin:0px;margin-left:4px;&quot;&gt;+ name: String&lt;/p&gt;&lt;p style=&quot;margin:0px;margin-left:4px;&quot;&gt;+ parent: Directory&lt;/p&gt;" style="verticalAlign=top;align=left;overflow=fill;fontSize=12;fontFamily=Helvetica;html=1;whiteSpace=wrap;" vertex="1" parent="1">
          <mxGeometry x="183" y="860" width="160" height="70" as="geometry" />
        </mxCell>
        <mxCell id="SA4KDHgM7VU6tI5pNKnn-67" value="&lt;p style=&quot;margin:0px;margin-top:4px;text-align:center;&quot;&gt;&lt;b&gt;Directory&lt;/b&gt;&lt;/p&gt;&lt;hr size=&quot;1&quot;&gt;&lt;p style=&quot;margin:0px;margin-left:4px;&quot;&gt;+ name: String&lt;/p&gt;&lt;p style=&quot;margin:0px;margin-left:4px;&quot;&gt;+ parent: Directory&lt;/p&gt;&lt;p style=&quot;margin:0px;margin-left:4px;&quot;&gt;+ children: List&amp;lt;FileNode&amp;gt;&lt;/p&gt;" style="verticalAlign=top;align=left;overflow=fill;fontSize=12;fontFamily=Helvetica;html=1;whiteSpace=wrap;" vertex="1" parent="1">
          <mxGeometry x="71" y="991" width="160" height="79" as="geometry" />
        </mxCell>
        <mxCell id="SA4KDHgM7VU6tI5pNKnn-68" value="&lt;p style=&quot;margin:0px;margin-top:4px;text-align:center;&quot;&gt;&lt;b&gt;File&lt;/b&gt;&lt;/p&gt;&lt;hr size=&quot;1&quot;&gt;&lt;p style=&quot;margin:0px;margin-left:4px;&quot;&gt;+ name: String&lt;/p&gt;" style="verticalAlign=top;align=left;overflow=fill;fontSize=12;fontFamily=Helvetica;html=1;whiteSpace=wrap;" vertex="1" parent="1">
          <mxGeometry x="288" y="991" width="160" height="50" as="geometry" />
        </mxCell>
        <mxCell id="SA4KDHgM7VU6tI5pNKnn-69" value="" style="endArrow=diamondThin;endFill=0;endSize=24;html=1;rounded=0;entryX=0;entryY=0.625;entryDx=0;entryDy=0;entryPerimeter=0;" edge="1" parent="1" target="SA4KDHgM7VU6tI5pNKnn-67">
          <mxGeometry width="160" relative="1" as="geometry">
            <mxPoint x="24" y="1040" as="sourcePoint" />
            <mxPoint x="565" y="822" as="targetPoint" />
          </mxGeometry>
        </mxCell>
        <mxCell id="SA4KDHgM7VU6tI5pNKnn-70" value="" style="endArrow=none;html=1;rounded=0;exitX=0.5;exitY=0;exitDx=0;exitDy=0;" edge="1" parent="1">
          <mxGeometry width="50" height="50" relative="1" as="geometry">
            <mxPoint x="24.5" y="1040" as="sourcePoint" />
            <mxPoint x="25" y="894" as="targetPoint" />
          </mxGeometry>
        </mxCell>
        <mxCell id="SA4KDHgM7VU6tI5pNKnn-71" value="" style="endArrow=none;html=1;rounded=0;entryX=0;entryY=0.5;entryDx=0;entryDy=0;startSize=6;" edge="1" parent="1" target="SA4KDHgM7VU6tI5pNKnn-66">
          <mxGeometry width="50" height="50" relative="1" as="geometry">
            <mxPoint x="26" y="895" as="sourcePoint" />
            <mxPoint x="105" y="901" as="targetPoint" />
          </mxGeometry>
        </mxCell>
        <mxCell id="SA4KDHgM7VU6tI5pNKnn-72" value="" style="endArrow=diamondThin;endFill=0;endSize=24;html=1;rounded=0;entryX=0.5;entryY=1;entryDx=0;entryDy=0;" edge="1" parent="1" target="SA4KDHgM7VU6tI5pNKnn-66">
          <mxGeometry width="160" relative="1" as="geometry">
            <mxPoint x="263" y="968" as="sourcePoint" />
            <mxPoint x="547" y="964" as="targetPoint" />
          </mxGeometry>
        </mxCell>
        <mxCell id="SA4KDHgM7VU6tI5pNKnn-73" value="" style="strokeWidth=1;html=1;shape=mxgraph.flowchart.annotation_1;align=left;pointerEvents=1;rotation=90;" vertex="1" parent="1">
          <mxGeometry x="246.38" y="868.13" width="22.25" height="222" as="geometry" />
        </mxCell>
      </root>
    </mxGraphModel>
  </diagram>
</mxfile>
